<svg xmlns="http://www.w3.org/2000/svg" width="83.883" height="83.883" viewBox="0 0 83.883 83.883"><defs><style>.a{fill:#fff;}.b{fill:none;stroke:#fff;stroke-miterlimit:10;}</style></defs><g transform="translate(-641.308 -205.546)"><circle class="a" cx="7.869" cy="7.869" r="7.869" transform="translate(674.771 232.623)"/><path class="a" d="M690.755,258.592a3.191,3.191,0,0,0-.682,2.029,3.228,3.228,0,0,0,.455,1.731H667.881a13.988,13.988,0,0,1,13.885-12.241,13.554,13.554,0,0,1,4.862.874,3,3,0,0,0,.892,2.029,3.039,3.039,0,0,0,2.221.944,2.861,2.861,0,0,0,1.329-.315c.017.018.052.035.07.07a5.463,5.463,0,0,0-.49.892,5.647,5.647,0,0,0-.4,2.169A3.21,3.21,0,0,0,690.755,258.592Z"/><path class="a" d="M688.372,250.92a3.7,3.7,0,0,1,.625-1.972,4.816,4.816,0,0,1,1.824-1.655,5.74,5.74,0,0,1,2.8-.656,5.963,5.963,0,0,1,2.623.549,4.254,4.254,0,0,1,1.758,1.49,3.662,3.662,0,0,1,.62,2.05,3.164,3.164,0,0,1-.354,1.526,4.688,4.688,0,0,1-.84,1.133q-.488.476-1.747,1.6a7.116,7.116,0,0,0-.559.559,2.038,2.038,0,0,0-.471.84q-.057.2-.169.7a1.14,1.14,0,0,1-1.219,1.065,1.248,1.248,0,0,1-.9-.348,1.37,1.37,0,0,1-.364-1.035,3.8,3.8,0,0,1,.267-1.491,3.757,3.757,0,0,1,.707-1.106,16.266,16.266,0,0,1,1.188-1.133q.657-.573.948-.865a2.934,2.934,0,0,0,.492-.651,1.577,1.577,0,0,0,.2-.779,1.81,1.81,0,0,0-.61-1.383,2.224,2.224,0,0,0-1.573-.564,2.178,2.178,0,0,0-1.66.569,4.542,4.542,0,0,0-.9,1.675q-.35,1.158-1.322,1.158a1.3,1.3,0,0,1-.968-.4A1.236,1.236,0,0,1,688.372,250.92Zm5,11.231a1.613,1.613,0,0,1-1.091-.4,1.418,1.418,0,0,1-.466-1.132,1.455,1.455,0,0,1,.451-1.086,1.52,1.52,0,0,1,1.106-.441,1.506,1.506,0,0,1,1.527,1.527,1.431,1.431,0,0,1-.461,1.127A1.557,1.557,0,0,1,693.372,262.151Z"/><circle class="b" cx="41.442" cy="41.442" r="41.442" transform="translate(641.808 206.046)"/></g></svg>