<?xml version="1.0" encoding="UTF-8"?>
<svg width="65px" height="92px" viewBox="0 0 65 92" version="1.1" xmlns="http://www.w3.org/2000/svg" xmlns:xlink="http://www.w3.org/1999/xlink">
    <!-- Generator: Sketch 57.1 (83088) - https://sketch.com -->
    <title>Computer a</title>
    <desc>Created with Sketch.</desc>
    <defs>
        <polygon id="path-1" points="0 0 32.97014 0 32.97014 23.98536 0 23.98536"></polygon>
    </defs>
    <g id="Page-1" stroke="none" stroke-width="1" fill="none" fill-rule="evenodd">
        <g id="Add-Guest--Copy" transform="translate(-192.000000, -240.000000)">
            <g id="Computer-a" transform="translate(192.000000, 240.000000)">
                <path d="M8.246,67.648 L9.226,68.474 C8.78733114,68.9966693 8.25300315,69.4049985 7.623,69.699 C6.99299685,69.9930015 6.30933702,70.14 5.572,70.14 C4.20932652,70.14 3.05433807,69.6593381 2.107,68.698 C1.15966193,67.7366619 0.686,66.5700069 0.686,65.198 C0.686,63.8259931 1.15966193,62.6570048 2.107,61.691 C3.05433807,60.7249952 4.20932652,60.242 5.572,60.242 C6.30000364,60.242 6.97666354,60.3866652 7.602,60.676 C8.22733646,60.9653348 8.75933114,61.3666641 9.198,61.88 L8.218,62.692 C7.48999636,61.8986627 6.60800518,61.502 5.572,61.502 C4.56399496,61.502 3.71467012,61.8613297 3.024,62.58 C2.33332988,63.2986703 1.988,64.1713282 1.988,65.198 C1.988,66.2246718 2.33332988,67.0949964 3.024,67.809 C3.71467012,68.5230036 4.56399496,68.88 5.572,68.88 C6.65467208,68.88 7.5459965,68.4693374 8.246,67.648 Z M16.03,69.188 C15.36733,69.8226698 14.5600048,70.14 13.608,70.14 C12.6559952,70.14 11.84867,69.8226698 11.186,69.188 C10.52333,68.5533302 10.192,67.7273384 10.192,66.71 C10.192,65.701995 10.5209967,64.8853365 11.179,64.26 C11.8370033,63.6346635 12.6466619,63.322 13.608,63.322 C14.5693381,63.322 15.38133,63.6346635 16.044,64.26 C16.70667,64.8853365 17.038,65.701995 17.038,66.71 C17.038,67.718005 16.7020034,68.5439968 16.03,69.188 Z M12.068,68.306 C12.4880021,68.7073353 13.0013303,68.908 13.608,68.908 C14.2146697,68.908 14.7256646,68.705002 15.141,68.299 C15.5563354,67.892998 15.764,67.3633366 15.764,66.71 C15.764,66.0659968 15.5563354,65.548002 15.141,65.156 C14.7256646,64.763998 14.2146697,64.568 13.608,64.568 C13.0013303,64.568 12.4903354,64.763998 12.075,65.156 C11.6596646,65.548002 11.452,66.0659968 11.452,66.71 C11.452,67.3633366 11.6573313,67.8953313 12.068,68.306 Z M26.25,64.568 C25.7179973,64.5586666 25.2956682,64.7336649 24.983,65.093 C24.6703318,65.4523351 24.514,65.9119972 24.514,66.472 L24.514,70 L23.24,70 L23.24,66.29 C23.24,65.7579973 23.111668,65.3380015 22.855,65.03 C22.598332,64.7219985 22.2553355,64.568 21.826,64.568 C21.3219975,64.568 20.8926684,64.7266651 20.538,65.044 C20.1833316,65.3613349 20.006,65.8373302 20.006,66.472 L20.006,70 L18.732,70 L18.732,63.462 L20.006,63.462 L20.006,64.442 C20.1646675,64.1153317 20.4236649,63.8586676 20.783,63.672 C21.1423351,63.4853324 21.4853317,63.3780001 21.812,63.35 C22.0640013,63.3406666 22.3019989,63.3546665 22.526,63.392 C23.3566708,63.5226673 23.9259985,63.9473297 24.234,64.666 C24.700669,63.7699955 25.4566614,63.322 26.502,63.322 C27.3140041,63.322 27.9369978,63.5739975 28.371,64.078 C28.8050022,64.5820025 29.022,65.2959954 29.022,66.22 L29.022,70 L27.748,70 L27.748,66.304 C27.748,65.762664 27.6150013,65.3380015 27.349,65.03 C27.0829987,64.7219985 26.716669,64.568 26.25,64.568 Z M32.34,63.462 L32.34,64.484 C32.5546677,64.1199982 32.8719979,63.8353344 33.292,63.63 C33.7120021,63.4246656 34.155331,63.322 34.622,63.322 C35.5366712,63.322 36.3113302,63.6393302 36.946,64.274 C37.5806698,64.9086698 37.898,65.7346616 37.898,66.752 C37.898,67.760005 37.5830032,68.5766635 36.953,69.202 C36.3229969,69.8273365 35.5460046,70.14 34.622,70.14 C34.1459976,70.14 33.6980021,70.0443343 33.278,69.853 C32.8579979,69.6616657 32.5453344,69.3840018 32.34,69.02 L32.34,73.178 L31.066,73.178 L31.066,63.462 L32.34,63.462 Z M32.354,66.766 C32.354,67.42867 32.5686645,67.9489981 32.998,68.327 C33.4273355,68.7050019 33.9266638,68.894 34.496,68.894 C35.1026697,68.894 35.6066647,68.698002 36.008,68.306 C36.4093353,67.913998 36.61,67.4006698 36.61,66.766 C36.61,66.1219968 36.407002,65.5946687 36.001,65.184 C35.594998,64.7733313 35.0933363,64.568 34.496,64.568 C33.8986637,64.568 33.3923354,64.7663314 32.977,65.163 C32.5616646,65.5596686 32.354,66.0939966 32.354,66.766 Z M44.058,66.99 L44.058,63.462 L45.332,63.462 L45.332,70 L44.058,70 L44.058,69.02 C43.8713324,69.3840018 43.5866686,69.6616657 43.204,69.853 C42.8213314,70.0443343 42.4293353,70.14 42.028,70.14 C41.2159959,70.14 40.5906689,69.8880025 40.152,69.384 C39.7133311,68.8799975 39.4986666,68.1660046 39.508,67.242 L39.508,63.462 L40.782,63.462 L40.782,67.158 C40.782,67.699336 40.9079987,68.1239985 41.16,68.432 C41.4120013,68.7400015 41.7619978,68.894 42.21,68.894 C42.7326693,68.894 43.1713316,68.7400015 43.526,68.432 C43.8806684,68.1239985 44.058,67.6433366 44.058,66.99 Z M49.224,63.462 L50.61,63.462 L50.61,64.54 L49.224,64.54 L49.224,70 L47.95,70 L47.95,64.54 L46.774,64.54 L46.774,63.462 L47.95,63.462 L47.95,60.998 L49.224,60.998 L49.224,63.462 Z M52.892,66.22 L56.952,66.22 C56.877333,65.678664 56.6603351,65.2516682 56.301,64.939 C55.9416649,64.6263318 55.4960027,64.47 54.964,64.47 C54.4133306,64.47 53.9490019,64.6263318 53.571,64.939 C53.1929981,65.2516682 52.966667,65.678664 52.892,66.22 Z M58.212,66.71 C58.212,66.9526679 58.2073334,67.1206662 58.198,67.214 L52.892,67.214 C52.966667,67.755336 53.1976647,68.1869984 53.585,68.509 C53.9723353,68.8310016 54.4459972,68.992 55.006,68.992 C55.4073353,68.992 55.7759983,68.9033342 56.112,68.726 C56.4480017,68.5486658 56.7046658,68.3013349 56.882,67.984 C57.0033339,68.0306669 57.1899987,68.1029995 57.442,68.201 C57.6940013,68.2990005 57.8713328,68.3666665 57.974,68.404 C57.703332,68.9640028 57.297336,69.3933318 56.756,69.692 C56.214664,69.9906682 55.6173366,70.14 54.964,70.14 C54.0119952,70.14 53.2163365,69.8226698 52.577,69.188 C51.9376635,68.5533302 51.618,67.7273384 51.618,66.71 C51.618,65.6926616 51.9376635,64.8736698 52.577,64.253 C53.2163365,63.6323302 54.0119952,63.322 54.964,63.322 C55.9066714,63.322 56.6836636,63.6323302 57.295,64.253 C57.9063364,64.8736698 58.212,65.6926616 58.212,66.71 Z M61.11,67.62 L61.11,70 L59.836,70 L59.836,63.462 L61.11,63.462 L61.11,64.932 C61.4273349,63.8586613 62.0339955,63.322 62.93,63.322 C63.4433359,63.322 63.8213321,63.4059992 64.064,63.574 L63.868,64.764 C63.5599985,64.6146659 63.2380017,64.54 62.902,64.54 C62.3046637,64.54 61.8566682,64.8223305 61.558,65.387 C61.2593318,65.9516695 61.11,66.6959954 61.11,67.62 Z" id="Computer" fill="#000000" fill-rule="nonzero"></path>
                <g id="monitor-disactive" transform="translate(8.000000, 0.000000)">
                    <circle id="Oval-Copy" stroke="#17939D" cx="25" cy="25" r="24.5"></circle>
                    <g id="Group-4" transform="translate(9.000000, 13.000000)">
                        <mask id="mask-2" fill="white">
                            <use xlink:href="#path-1"></use>
                        </mask>
                        <g id="Clip-2"></g>
                        <path d="M2.275,19.31951 L30.695,19.31951 L30.695,2.275 L2.275,2.275 L2.275,19.31951 Z M31.045,1.575 L1.925,1.575 C1.73173,1.575 1.575,1.73173 1.575,1.925 L1.575,19.66951 C1.575,19.86278 1.73173,20.01951 1.925,20.01951 L31.045,20.01951 C31.23834,20.01951 31.395,19.86278 31.395,19.66951 L31.395,1.925 C31.395,1.73166 31.23834,1.575 31.045,1.575 L31.045,1.575 Z" id="Fill-1" fill="#4BC7E9" mask="url(#mask-2)"></path>
                        <path d="M31.92,20.058332 C31.92,20.326432 31.70195,20.544482 31.43385,20.544482 L1.53622,20.544482 C1.26812,20.544482 1.05,20.326362 1.05,20.058332 L1.05,1.536122 C1.05,1.268022 1.26812,1.049902 1.53622,1.049902 L31.43385,1.049902 C31.70195,1.049902 31.92,1.268022 31.92,1.536122 L31.92,20.058332 Z M20.46758,22.935472 L12.50242,22.935472 L13.05619,21.594482 L19.91388,21.594482 L20.46758,22.935472 Z M31.43385,-2.8e-05 L1.53622,-2.8e-05 C0.68915,-2.8e-05 0,0.689122 0,1.536122 L0,20.058262 C0,20.905402 0.68915,21.594412 1.53622,21.594412 L11.92023,21.594412 L11.36653,22.935402 L9.14249,22.935402 C8.85255,22.935402 8.61749,23.170392 8.61749,23.460402 C8.61749,23.750272 8.85255,23.985402 9.14249,23.985402 L23.82772,23.985402 C24.1178,23.985402 24.35272,23.750272 24.35272,23.460402 C24.35272,23.170392 24.1178,22.935402 23.82772,22.935402 L21.60375,22.935402 L21.04998,21.594412 L31.43399,21.594412 C32.28106,21.594412 32.97014,20.905332 32.97014,20.058262 L32.97014,1.536122 C32.97014,0.689122 32.28092,-2.8e-05 31.43385,-2.8e-05 L31.43385,-2.8e-05 Z" id="Fill-3" fill="#4BC7E9" mask="url(#mask-2)"></path>
                    </g>
                </g>
                <rect id="Rectangle-Copy-2" stroke="#17939D" x="26.5" y="79.5" width="12" height="12" rx="2"></rect>
                <polyline id="Path-5" stroke="#4BC7E9" stroke-width="1.2274" stroke-linecap="round" stroke-linejoin="round" points="29 85.5 31.8288397 88 36 83"></polyline>
            </g>
        </g>
    </g>
</svg>