<?xml version="1.0" encoding="UTF-8"?>
<svg width="50px" height="92px" viewBox="0 0 50 92" version="1.1" xmlns="http://www.w3.org/2000/svg" xmlns:xlink="http://www.w3.org/1999/xlink">
    <!-- Generator: Sketch 57.1 (83088) - https://sketch.com -->
    <title>Laptop d</title>
    <desc>Created with Sketch.</desc>
    <defs>
        <polygon id="path-1" points="0 0.023877 32.704693 0.023877 32.704693 22.33 0 22.33"></polygon>
    </defs>
    <g id="Page-1" stroke="none" stroke-width="1" fill="none" fill-rule="evenodd">
        <g id="Add-Guest--Copy" transform="translate(-111.000000, -106.000000)">
            <g id="Laptop-d" transform="translate(111.000000, 106.000000)">
                <path d="M3,60 L4.302,60 L4.302,68.428 L8.236,68.428 L8.236,69.646 L3,69.646 L3,60 Z M14.858,69.646 L14.858,68.638 C14.6433323,69.0020018 14.3260021,69.2843323 13.906,69.485 C13.4859979,69.6856677 13.0380024,69.786 12.562,69.786 C11.6379954,69.786 10.8540032,69.4686698 10.21,68.834 C9.56599678,68.1993302 9.244,67.378005 9.244,66.37 C9.244,65.3526616 9.56599678,64.5313365 10.21,63.906 C10.8540032,63.2806635 11.6379954,62.968 12.562,62.968 C13.0380024,62.968 13.4883312,63.065999 13.913,63.262 C14.3376688,63.458001 14.6526656,63.7333316 14.858,64.088 L14.858,63.108 L16.118,63.108 L16.118,69.646 L14.858,69.646 Z M14.844,66.356 C14.844,65.69333 14.6246689,65.1706686 14.186,64.788 C13.7473311,64.4053314 13.2433362,64.214 12.674,64.214 C12.0673303,64.214 11.561002,64.4123314 11.155,64.809 C10.748998,65.2056687 10.546,65.7213302 10.546,66.356 C10.546,66.9906698 10.7513313,67.5133313 11.162,67.924 C11.5726687,68.3346687 12.0766637,68.54 12.674,68.54 C13.2806697,68.54 13.7939979,68.344002 14.214,67.952 C14.6340021,67.559998 14.844,67.0280034 14.844,66.356 Z M19.52,63.108 L19.52,64.13 C19.7346677,63.7659982 20.0519979,63.4813344 20.472,63.276 C20.8920021,63.0706656 21.335331,62.968 21.802,62.968 C22.7166712,62.968 23.4913302,63.2853302 24.126,63.92 C24.7606698,64.5546698 25.078,65.3806616 25.078,66.398 C25.078,67.406005 24.7630031,68.2226635 24.133,68.848 C23.5029968,69.4733365 22.7260046,69.786 21.802,69.786 C21.3259976,69.786 20.8780021,69.6903343 20.458,69.499 C20.0379979,69.3076657 19.7253344,69.0300018 19.52,68.666 L19.52,72.824 L18.246,72.824 L18.246,63.108 L19.52,63.108 Z M19.534,66.412 C19.534,67.07467 19.7486645,67.5949981 20.178,67.973 C20.6073355,68.3510019 21.1066638,68.54 21.676,68.54 C22.2826697,68.54 22.7866647,68.344002 23.188,67.952 C23.5893353,67.559998 23.79,67.0466698 23.79,66.412 C23.79,65.7679968 23.587002,65.2406687 23.181,64.83 C22.774998,64.4193313 22.2733363,64.214 21.676,64.214 C21.0786637,64.214 20.5723354,64.4123314 20.157,64.809 C19.7416646,65.2056687 19.534,65.7399966 19.534,66.412 Z M28.536,63.108 L29.922,63.108 L29.922,64.186 L28.536,64.186 L28.536,69.646 L27.262,69.646 L27.262,64.186 L26.086,64.186 L26.086,63.108 L27.262,63.108 L27.262,60.644 L28.536,60.644 L28.536,63.108 Z M36.768,68.834 C36.10533,69.4686698 35.2980048,69.786 34.346,69.786 C33.3939952,69.786 32.58667,69.4686698 31.924,68.834 C31.26133,68.1993302 30.93,67.3733384 30.93,66.356 C30.93,65.347995 31.2589967,64.5313365 31.917,63.906 C32.5750033,63.2806635 33.3846619,62.968 34.346,62.968 C35.3073381,62.968 36.11933,63.2806635 36.782,63.906 C37.44467,64.5313365 37.776,65.347995 37.776,66.356 C37.776,67.364005 37.4400034,68.1899968 36.768,68.834 Z M32.806,67.952 C33.2260021,68.3533353 33.7393303,68.554 34.346,68.554 C34.9526697,68.554 35.4636646,68.351002 35.879,67.945 C36.2943354,67.538998 36.502,67.0093366 36.502,66.356 C36.502,65.7119968 36.2943354,65.194002 35.879,64.802 C35.4636646,64.409998 34.9526697,64.214 34.346,64.214 C33.7393303,64.214 33.2283354,64.409998 32.813,64.802 C32.3976646,65.194002 32.19,65.7119968 32.19,66.356 C32.19,67.0093366 32.3953313,67.5413313 32.806,67.952 Z M40.744,63.108 L40.744,64.13 C40.9586677,63.7659982 41.2759979,63.4813344 41.696,63.276 C42.1160021,63.0706656 42.559331,62.968 43.026,62.968 C43.9406712,62.968 44.7153302,63.2853302 45.35,63.92 C45.9846698,64.5546698 46.302,65.3806616 46.302,66.398 C46.302,67.406005 45.9870031,68.2226635 45.357,68.848 C44.7269968,69.4733365 43.9500046,69.786 43.026,69.786 C42.5499976,69.786 42.1020021,69.6903343 41.682,69.499 C41.2619979,69.3076657 40.9493344,69.0300018 40.744,68.666 L40.744,72.824 L39.47,72.824 L39.47,63.108 L40.744,63.108 Z M40.758,66.412 C40.758,67.07467 40.9726645,67.5949981 41.402,67.973 C41.8313355,68.3510019 42.3306638,68.54 42.9,68.54 C43.5066697,68.54 44.0106647,68.344002 44.412,67.952 C44.8133353,67.559998 45.014,67.0466698 45.014,66.412 C45.014,65.7679968 44.811002,65.2406687 44.405,64.83 C43.998998,64.4193313 43.4973363,64.214 42.9,64.214 C42.3026637,64.214 41.7963354,64.4123314 41.381,64.809 C40.9656646,65.2056687 40.758,65.7399966 40.758,66.412 Z" id="Laptop" fill="#A9CAD4" fill-rule="nonzero"></path>
                <g id="Laptop-disactive">
                    <circle id="Oval" stroke="#A9CAD4" cx="25" cy="25" r="24.5"></circle>
                    <g id="Group-6" transform="translate(8.000000, 13.000000)">
                        <path d="M29.082676,17.376226 C29.082676,17.436076 29.034026,17.484726 28.974176,17.484726 L3.730636,17.484726 C3.670786,17.484726 3.622066,17.436006 3.622066,17.376226 L3.622066,2.453556 C3.622066,2.393706 3.670716,2.345056 3.730636,2.345056 L28.974176,2.345056 C29.034026,2.345056 29.082676,2.393776 29.082676,2.453556 L29.082676,17.376226 Z M28.974176,1.644986 L3.730636,1.644986 C3.284806,1.644986 2.922066,2.007656 2.922066,2.453486 L2.922066,17.376226 C2.922066,17.822056 3.284806,18.184726 3.730636,18.184726 L28.974176,18.184726 C29.419936,18.184726 29.782676,17.822056 29.782676,17.376226 L29.782676,2.453556 C29.782676,2.007726 29.419936,1.644986 28.974176,1.644986 L28.974176,1.644986 Z" id="Fill-1" fill="#A9CAD4"></path>
                        <g id="Group-5" transform="translate(0.000000, 0.046130)">
                            <mask id="mask-2" fill="white">
                                <use xlink:href="#path-1"></use>
                            </mask>
                            <g id="Clip-4"></g>
                            <path d="M31.654833,20.631037 C31.654833,20.988947 31.363703,21.280007 31.005863,21.280007 L1.699103,21.280007 C1.341193,21.280007 1.050063,20.988877 1.050063,20.631037 L1.050063,19.713687 L1.872143,19.713687 L14.112413,19.713687 L14.112413,19.988227 C14.112413,20.497127 14.526393,20.911107 15.035293,20.911107 L17.669603,20.911107 C18.178503,20.911107 18.592553,20.497127 18.592553,19.988227 L18.592553,19.713687 L30.832753,19.713687 L31.654833,19.713687 L31.654833,20.631037 Z M14.812343,19.713687 L17.892413,19.713687 L17.892413,19.988227 C17.892413,20.111077 17.792383,20.211107 17.669463,20.211107 L15.035153,20.211107 C14.912233,20.211107 14.812273,20.111147 14.812273,19.988227 L14.812273,19.713687 L14.812343,19.713687 Z M2.397073,2.023637 C2.397073,1.499967 2.823163,1.073877 3.346833,1.073877 L29.357923,1.073877 C29.881523,1.073877 30.307613,1.499897 30.307613,2.023637 L30.307613,18.663617 L2.397073,18.663617 L2.397073,2.023637 Z M32.179763,18.663687 L31.357683,18.663687 L31.357683,2.023637 C31.357683,0.920997 30.460633,0.023877 29.357923,0.023877 L3.346903,0.023877 C2.244193,0.023877 1.347143,0.920927 1.347143,2.023637 L1.347143,18.663617 L0.524993,18.663617 C0.234983,18.663617 -7e-06,18.898677 -7e-06,19.188617 L-7e-06,20.630967 C-7e-06,21.567847 0.762223,22.330007 1.699033,22.330007 L31.005653,22.330007 C31.942533,22.330007 32.704693,21.567777 32.704693,20.630967 L32.704693,19.188617 C32.704693,18.898747 32.469773,18.663687 32.179763,18.663687 L32.179763,18.663687 Z" id="Fill-3" fill="#A9CAD4" mask="url(#mask-2)"></path>
                        </g>
                    </g>
                </g>
                <rect id="Rectangle" stroke="#A9CAD4" x="19.5" y="79.5" width="12" height="12" rx="2"></rect>
            </g>
        </g>
    </g>
</svg>