<?xml version="1.0" encoding="UTF-8"?>
<svg width="50px" height="93px" viewBox="0 0 50 93" version="1.1" xmlns="http://www.w3.org/2000/svg" xmlns:xlink="http://www.w3.org/1999/xlink">
    <!-- Generator: Sketch 57.1 (83088) - https://sketch.com -->
    <title>mobile d</title>
    <desc>Created with Sketch.</desc>
    <defs>
        <polygon id="path-1" points="0 0.0138368 22.4153216 0.0138368 22.4153216 34.8127706 0 34.8127706"></polygon>
    </defs>
    <g id="Page-1" stroke="none" stroke-width="1" fill="none" fill-rule="evenodd">
        <g id="Add-Guest--Copy" transform="translate(-26.000000, -106.000000)">
            <g id="mobile-d" transform="translate(26.000000, 106.000000)">
                <g id="Mobile-disactive">
                    <circle id="Oval" stroke="#A9CAD4" cx="25" cy="25" r="24.5"></circle>
                    <g id="Group-10" transform="translate(14.000000, 8.000000)">
                        <g id="Group-3" transform="translate(0.000000, 0.059763)">
                            <mask id="mask-2" fill="white">
                                <use xlink:href="#path-1"></use>
                            </mask>
                            <g id="Clip-2"></g>
                            <path d="M20.2121792,33.708697 L2.2030688,33.708697 C1.5970464,33.708697 1.1039264,33.2157242 1.1039264,32.6095546 L1.1039264,29.3008666 L21.311248,29.3008666 L21.311248,32.6095546 C21.311248,33.2157242 20.8182016,33.708697 20.2121792,33.708697 L20.2121792,33.708697 Z M2.2030688,1.11780736 L20.2121792,1.11780736 C20.8182016,1.11780736 21.3113216,1.61092736 21.3113216,2.21702336 L21.3113216,4.81517696 L1.104,4.81517696 L1.104,2.21702336 C1.104,1.61092736 1.5970464,1.11780736 2.2030688,1.11780736 L2.2030688,1.11780736 Z M1.104,28.5649402 L21.3113216,28.5649402 L21.3113216,5.55117696 L1.104,5.55117696 L1.104,28.5649402 Z M20.2121792,0.01380736 L2.2030688,0.01380736 C0.9882272,0.01380736 0,1.00218176 0,2.21702336 L0,32.6096282 C0,33.8243962 0.9883008,34.8127706 2.2031424,34.8127706 L20.2121792,34.8127706 C21.4270208,34.8127706 22.4153216,33.8244698 22.4153216,32.6096282 L22.4153216,2.21702336 C22.4153216,1.00218176 21.4270208,0.01380736 20.2121792,0.01380736 L20.2121792,0.01380736 Z" id="Fill-1" fill="#A9CAD4" mask="url(#mask-2)"></path>
                        </g>
                        <path d="M11.2076829,32.7284995 C10.6166013,32.7284995 10.1357725,32.2476707 10.1357725,31.6566627 C10.1357725,31.0655075 10.6166013,30.5846051 11.2076829,30.5846051 C11.7986909,30.5846051 12.2795197,31.0655075 12.2795197,31.6566627 C12.2795197,32.2476707 11.7986909,32.7284995 11.2076829,32.7284995 M11.2076829,29.8486051 C10.2107709,29.8486051 9.39977248,30.6597507 9.39977248,31.6566627 C9.39977248,32.6535011 10.2108445,33.4644995 11.2076829,33.4644995 C12.2045213,33.4644995 13.0155197,32.6534275 13.0155197,31.6566627 C13.0155197,30.6598243 12.2045949,29.8486051 11.2076829,29.8486051" id="Fill-4" fill="#A9CAD4"></path>
                        <path d="M8.70528288,3.580272 L13.7100829,3.580272 C13.9133661,3.580272 14.0780829,3.4154816 14.0780829,3.212272 C14.0780829,3.0090624 13.9133661,2.844272 13.7100829,2.844272 L8.70528288,2.844272 C8.50199968,2.844272 8.33728288,3.0090624 8.33728288,3.212272 C8.33728288,3.4154816 8.50199968,3.580272 8.70528288,3.580272" id="Fill-6" fill="#A9CAD4"></path>
                        <path d="M7.38069632,3.580272 C7.47711232,3.580272 7.57205632,3.541264 7.64050432,3.472816 C7.70895232,3.403632 7.74869632,3.309424 7.74869632,3.212272 C7.74869632,3.11512 7.70895232,3.020912 7.64050432,2.951728 C7.57198272,2.88328 7.47703872,2.844272 7.38069632,2.844272 C7.28354432,2.844272 7.18926272,2.88328 7.12015232,2.951728 C7.05170432,3.020176 7.01269632,3.11512 7.01269632,3.212272 C7.01269632,3.309424 7.05170432,3.403632 7.12015232,3.472816 C7.18860032,3.541264 7.28354432,3.580272 7.38069632,3.580272" id="Fill-8" fill="#A9CAD4"></path>
                    </g>
                </g>
                <path d="M9.768,67.532 L13.17,60.448 L14.36,60.448 L15.536,70.094 L14.248,70.094 L13.366,62.842 L10.356,69.03 L9.208,69.03 L6.17,62.842 L5.288,70.094 L4,70.094 L5.176,60.448 L6.366,60.448 L9.768,67.532 Z M22.774,69.282 C22.11133,69.9166698 21.3040048,70.234 20.352,70.234 C19.3999952,70.234 18.59267,69.9166698 17.93,69.282 C17.26733,68.6473302 16.936,67.8213384 16.936,66.804 C16.936,65.795995 17.2649967,64.9793365 17.923,64.354 C18.5810033,63.7286635 19.3906619,63.416 20.352,63.416 C21.3133381,63.416 22.12533,63.7286635 22.788,64.354 C23.45067,64.9793365 23.782,65.795995 23.782,66.804 C23.782,67.812005 23.4460034,68.6379968 22.774,69.282 Z M18.812,68.4 C19.2320021,68.8013353 19.7453303,69.002 20.352,69.002 C20.9586697,69.002 21.4696646,68.799002 21.885,68.393 C22.3003354,67.986998 22.508,67.4573366 22.508,66.804 C22.508,66.1599968 22.3003354,65.642002 21.885,65.25 C21.4696646,64.857998 20.9586697,64.662 20.352,64.662 C19.7453303,64.662 19.2343354,64.857998 18.819,65.25 C18.4036646,65.642002 18.196,66.1599968 18.196,66.804 C18.196,67.4573366 18.4013313,67.9893313 18.812,68.4 Z M26.75,69.086 L26.75,70.094 L25.476,70.094 L25.476,60 L26.75,60 L26.75,64.536 C26.9646677,64.1719982 27.2773313,63.8943343 27.688,63.703 C28.0986687,63.5116657 28.5513309,63.416 29.046,63.416 C29.979338,63.416 30.7633302,63.7286635 31.398,64.354 C32.0326698,64.9793365 32.35,65.8006616 32.35,66.818 C32.35,67.826005 32.0280032,68.6473302 31.384,69.282 C30.7399968,69.9166698 29.9560046,70.234 29.032,70.234 C28.565331,70.234 28.1220021,70.1336677 27.702,69.933 C27.2819979,69.7323323 26.9646677,69.4500018 26.75,69.086 Z M26.764,66.804 C26.764,67.4760034 26.9739979,68.007998 27.394,68.4 C27.8140021,68.792002 28.3273303,68.988 28.934,68.988 C29.5313363,68.988 30.032998,68.7826687 30.439,68.372 C30.845002,67.9613313 31.048,67.4386698 31.048,66.804 C31.048,66.1693302 30.845002,65.6536686 30.439,65.257 C30.032998,64.8603313 29.5313363,64.662 28.934,64.662 C28.3646638,64.662 27.8606689,64.8533314 27.422,65.236 C26.9833311,65.6186686 26.764,66.14133 26.764,66.804 Z M34.044,70.094 L34.044,63.556 L35.304,63.556 L35.304,70.094 L34.044,70.094 Z M34.044,61.736 C33.8759992,61.5773325 33.792,61.3813345 33.792,61.148 C33.792,60.9146655 33.8783325,60.7186675 34.051,60.56 C34.2236675,60.4013325 34.4313321,60.322 34.674,60.322 C34.9166679,60.322 35.1243325,60.4013325 35.297,60.56 C35.4696675,60.7186675 35.556,60.9146655 35.556,61.148 C35.556,61.3813345 35.4696675,61.5773325 35.297,61.736 C35.1243325,61.8946675 34.9166679,61.974 34.674,61.974 C34.4313321,61.974 34.2213342,61.8946675 34.044,61.736 Z M37.432,60 L38.706,60 L38.706,70.094 L37.432,70.094 L37.432,60 Z M41.674,66.314 L45.734,66.314 C45.659333,65.772664 45.4423351,65.3456682 45.083,65.033 C44.7236649,64.7203318 44.2780027,64.564 43.746,64.564 C43.1953306,64.564 42.7310019,64.7203318 42.353,65.033 C41.9749981,65.3456682 41.748667,65.772664 41.674,66.314 Z M46.994,66.804 C46.994,67.0466679 46.9893334,67.2146662 46.98,67.308 L41.674,67.308 C41.748667,67.849336 41.9796647,68.2809984 42.367,68.603 C42.7543353,68.9250016 43.2279972,69.086 43.788,69.086 C44.1893353,69.086 44.5579983,68.9973342 44.894,68.82 C45.2300017,68.6426658 45.4866658,68.3953349 45.664,68.078 C45.7853339,68.1246669 45.9719987,68.1969995 46.224,68.295 C46.4760013,68.3930005 46.6533328,68.4606665 46.756,68.498 C46.485332,69.0580028 46.079336,69.4873318 45.538,69.786 C44.996664,70.0846682 44.3993366,70.234 43.746,70.234 C42.7939952,70.234 41.9983365,69.9166698 41.359,69.282 C40.7196635,68.6473302 40.4,67.8213384 40.4,66.804 C40.4,65.7866616 40.7196635,64.9676698 41.359,64.347 C41.9983365,63.7263302 42.7939952,63.416 43.746,63.416 C44.6886714,63.416 45.4656636,63.7263302 46.077,64.347 C46.6883364,64.9676698 46.994,65.7866616 46.994,66.804 Z" id="Mobile" fill="#A9CAD4" fill-rule="nonzero"></path>
                <rect id="Rectangle-Copy-4" stroke="#A9CAD4" x="19.5" y="80.5" width="12" height="12" rx="2"></rect>
            </g>
        </g>
    </g>
</svg>