<svg xmlns="http://www.w3.org/2000/svg" width="12" height="17.538" viewBox="0 0 12 17.538"><defs><style>.a{fill:#939da0;}</style></defs><g transform="translate(6874.176 -199.462)"><path class="a" d="M-6869.1,205.462h-4.615l5.538-5.539v4.615A.924.924,0,0,1-6869.1,205.462Z"/><path class="a" d="M-6862.176,200.385v15.692a.923.923,0,0,1-.923.923h-10.154a.923.923,0,0,1-.923-.923v-8.769a.923.923,0,0,1,.923-.923h5.077a.923.923,0,0,0,.923-.923v-5.077a.924.924,0,0,1,.924-.923h3.23A.923.923,0,0,1-6862.176,200.385Z"/><path class="a" d="M-6867.714,199.462"/><path class="a" d="M-6874.176,205.923"/></g></svg>