<svg xmlns="http://www.w3.org/2000/svg" width="16.351" height="15.814" viewBox="0 0 16.351 15.814"><defs><style>.a{fill:#939da0;}</style></defs><g transform="translate(6876.351 -269.593)"><circle class="a" cx="4.186" cy="4.186" r="4.186" transform="translate(-6872.686 269.593)"/><path class="a" d="M-6864.183,283.407a1.7,1.7,0,0,0-.363,1.079,1.718,1.718,0,0,0,.242.921h-12.047a7.442,7.442,0,0,1,7.386-6.512,7.208,7.208,0,0,1,2.586.466,1.6,1.6,0,0,0,.475,1.079,1.617,1.617,0,0,0,1.181.5,1.531,1.531,0,0,0,.707-.167.113.113,0,0,1,.037.037,2.913,2.913,0,0,0-.26.474,2.991,2.991,0,0,0-.214,1.154A1.707,1.707,0,0,0-6864.183,283.407Z"/><path class="a" d="M-6865.451,279.326a1.97,1.97,0,0,1,.333-1.049,2.555,2.555,0,0,1,.97-.881,3.057,3.057,0,0,1,1.488-.348,3.178,3.178,0,0,1,1.4.291,2.263,2.263,0,0,1,.935.793,1.945,1.945,0,0,1,.33,1.09,1.694,1.694,0,0,1-.188.813,2.479,2.479,0,0,1-.447.6q-.26.254-.929.853a3.7,3.7,0,0,0-.3.3,1.209,1.209,0,0,0-.167.234,1.168,1.168,0,0,0-.084.213c-.02.071-.05.195-.09.373a.606.606,0,0,1-.649.567.661.661,0,0,1-.477-.185.729.729,0,0,1-.193-.551,2.035,2.035,0,0,1,.141-.793,2,2,0,0,1,.377-.588,8.611,8.611,0,0,1,.632-.6c.232-.2.4-.357.5-.46a1.564,1.564,0,0,0,.262-.346.843.843,0,0,0,.106-.415.961.961,0,0,0-.324-.735,1.184,1.184,0,0,0-.837-.3,1.159,1.159,0,0,0-.883.3,2.418,2.418,0,0,0-.48.891q-.185.617-.7.616a.69.69,0,0,1-.515-.215A.659.659,0,0,1-6865.451,279.326Zm2.66,5.974a.859.859,0,0,1-.58-.215.753.753,0,0,1-.248-.6.778.778,0,0,1,.239-.578.809.809,0,0,1,.589-.235.783.783,0,0,1,.578.235.787.787,0,0,1,.234.578.758.758,0,0,1-.245.6A.828.828,0,0,1-6862.791,285.3Z"/></g></svg>