<?xml version="1.0" encoding="UTF-8"?>
<svg width="50px" height="92px" viewBox="0 0 50 92" version="1.1" xmlns="http://www.w3.org/2000/svg" xmlns:xlink="http://www.w3.org/1999/xlink">
    <!-- Generator: Sketch 57.1 (83088) - https://sketch.com -->
    <title>tab d</title>
    <desc>Created with Sketch.</desc>
    <defs>
        <polygon id="path-1" points="3.5e-05 0.00147 24.77881 0.00147 24.77881 31.079986 3.5e-05 31.079986"></polygon>
        <polygon id="path-3" points="0 31.14853 24.77881 31.14853 24.77881 0.07 0 0.07"></polygon>
    </defs>
    <g id="Page-1" stroke="none" stroke-width="1" fill="none" fill-rule="evenodd">
        <g id="Add-Guest--Copy" transform="translate(-280.000000, -106.000000)">
            <g id="tab-d" transform="translate(280.000000, 106.000000)">
                <path d="M13,60.448 L20.168,60.448 L20.168,61.68 L17.242,61.68 L17.242,70.094 L15.926,70.094 L15.926,61.68 L13,61.68 L13,60.448 Z M26.804,70.094 L26.804,69.086 C26.5893323,69.4500018 26.2720021,69.7323323 25.852,69.933 C25.4319979,70.1336677 24.9840024,70.234 24.508,70.234 C23.5839954,70.234 22.8000032,69.9166698 22.156,69.282 C21.5119968,68.6473302 21.19,67.826005 21.19,66.818 C21.19,65.8006616 21.5119968,64.9793365 22.156,64.354 C22.8000032,63.7286635 23.5839954,63.416 24.508,63.416 C24.9840024,63.416 25.4343312,63.513999 25.859,63.71 C26.2836688,63.906001 26.5986656,64.1813316 26.804,64.536 L26.804,63.556 L28.064,63.556 L28.064,70.094 L26.804,70.094 Z M26.79,66.804 C26.79,66.14133 26.5706689,65.6186686 26.132,65.236 C25.6933311,64.8533314 25.1893362,64.662 24.62,64.662 C24.0133303,64.662 23.507002,64.8603313 23.101,65.257 C22.694998,65.6536686 22.492,66.1693302 22.492,66.804 C22.492,67.4386698 22.6973313,67.9613313 23.108,68.372 C23.5186687,68.7826687 24.0226637,68.988 24.62,68.988 C25.2266697,68.988 25.7399979,68.792002 26.16,68.4 C26.5800021,68.007998 26.79,67.4760034 26.79,66.804 Z M31.466,69.086 L31.466,70.094 L30.192,70.094 L30.192,60 L31.466,60 L31.466,64.536 C31.6806677,64.1719982 31.9933313,63.8943343 32.404,63.703 C32.8146687,63.5116657 33.2673309,63.416 33.762,63.416 C34.695338,63.416 35.4793302,63.7286635 36.114,64.354 C36.7486698,64.9793365 37.066,65.8006616 37.066,66.818 C37.066,67.826005 36.7440032,68.6473302 36.1,69.282 C35.4559968,69.9166698 34.6720046,70.234 33.748,70.234 C33.281331,70.234 32.8380021,70.1336677 32.418,69.933 C31.9979979,69.7323323 31.6806677,69.4500018 31.466,69.086 Z M31.48,66.804 C31.48,67.4760034 31.6899979,68.007998 32.11,68.4 C32.5300021,68.792002 33.0433303,68.988 33.65,68.988 C34.2473363,68.988 34.748998,68.7826687 35.155,68.372 C35.561002,67.9613313 35.764,67.4386698 35.764,66.804 C35.764,66.1693302 35.561002,65.6536686 35.155,65.257 C34.748998,64.8603313 34.2473363,64.662 33.65,64.662 C33.0806638,64.662 32.5766689,64.8533314 32.138,65.236 C31.6993311,65.6186686 31.48,66.14133 31.48,66.804 Z" id="Tab" fill="#A9CAD4" fill-rule="nonzero"></path>
                <g id="tab-disactive">
                    <circle id="Oval-Copy-2" stroke="#A9CAD4" cx="25" cy="25" r="24.5"></circle>
                    <g id="Group-8" transform="translate(13.000000, 9.000000)">
                        <g id="Group-3" transform="translate(0.000000, 0.068530)">
                            <mask id="mask-2" fill="white">
                                <use xlink:href="#path-1"></use>
                            </mask>
                            <g id="Clip-2"></g>
                            <path d="M23.728845,29.241716 C23.728845,29.676346 23.375135,30.029986 22.940505,30.029986 L1.838235,30.029986 C1.403605,30.029986 1.050035,29.676346 1.050035,29.241716 L1.050035,1.839726 C1.050035,1.405096 1.403605,1.051456 1.838235,1.051456 L22.940505,1.051456 C23.375135,1.051456 23.728845,1.405096 23.728845,1.839726 L23.728845,29.241716 Z M22.940505,0.001456 L1.838235,0.001456 C0.824635,0.001456 3.5e-05,0.826126 3.5e-05,1.839726 L3.5e-05,29.241716 C3.5e-05,30.255316 0.824565,31.079986 1.838235,31.079986 L22.940505,31.079986 C23.954175,31.079986 24.778845,30.255316 24.778845,29.241716 L24.778845,1.839726 C24.778845,0.826126 23.954175,0.001456 22.940505,0.001456 L22.940505,0.001456 Z" id="Fill-1" fill="#A9CAD4" mask="url(#mask-2)"></path>
                        </g>
                        <mask id="mask-4" fill="white">
                            <use xlink:href="#path-3"></use>
                        </mask>
                        <g id="Clip-5"></g>
                        <path d="M2.44993,27.09497 L22.32888,27.09497 L22.32888,4.12356 L2.44993,4.12356 L2.44993,27.09497 Z M22.67888,3.42356 L2.09993,3.42356 C1.90666,3.42356 1.74993,3.58029 1.74993,3.77356 L1.74993,27.44497 C1.74993,27.63824 1.90666,27.79497 2.09993,27.79497 L22.67888,27.79497 C22.87215,27.79497 23.02888,27.63824 23.02888,27.44497 L23.02888,3.77356 C23.02888,3.58022 22.87215,3.42356 22.67888,3.42356 L22.67888,3.42356 Z" id="Fill-4" fill="#A9CAD4" mask="url(#mask-4)"></path>
                        <path d="M12.389594,28.523432 C12.250994,28.523432 12.115894,28.579502 12.017894,28.677432 C11.920594,28.774802 11.864594,28.910532 11.864594,29.048432 C11.864594,29.186402 11.920594,29.322132 12.017894,29.419502 C12.115894,29.517432 12.250994,29.573432 12.389594,29.573432 C12.527494,29.573432 12.663294,29.517432 12.760594,29.419502 C12.858594,29.322132 12.914594,29.186402 12.914594,29.048432 C12.914594,28.910532 12.858594,28.774802 12.760594,28.677432 C12.662524,28.579502 12.527494,28.523432 12.389594,28.523432" id="Fill-6" fill="#A9CAD4" mask="url(#mask-4)"></path>
                        <path d="M12.389594,2.677367 C12.481294,2.677367 12.571594,2.640267 12.636694,2.575167 C12.701794,2.510067 12.739594,2.419767 12.739594,2.327367 C12.739594,2.234967 12.701794,2.145367 12.636694,2.079567 C12.571594,2.014467 12.481294,1.977367 12.389594,1.977367 C12.297194,1.977367 12.206894,2.014467 12.141794,2.079567 C12.076694,2.144667 12.039594,2.234967 12.039594,2.327367 C12.039594,2.419767 12.076694,2.510067 12.141794,2.575167 C12.206894,2.640267 12.297194,2.677367 12.389594,2.677367" id="Fill-7" fill="#A9CAD4" mask="url(#mask-4)"></path>
                    </g>
                </g>
                <rect id="Rectangle-Copy-3" stroke="#A9CAD4" x="19.5" y="79.5" width="12" height="12" rx="2"></rect>
            </g>
        </g>
    </g>
</svg>