<svg xmlns="http://www.w3.org/2000/svg" width="18.351" height="16.323" viewBox="0 0 18.351 16.323"><defs><style>.a{fill:#939da0;}</style></defs><g transform="translate(6877.351 -338.387)"><path class="a" d="M-6875.9,348.512a.165.165,0,0,1-.2-.121,8.218,8.218,0,0,1-.208-1.837,8.179,8.179,0,0,1,8-8.167.166.166,0,0,1,.167.164v1.674a.156.156,0,0,1-.154.155,6.182,6.182,0,0,0-6.022,6.174,6.16,6.16,0,0,0,.151,1.364.155.155,0,0,1-.113.186Z"/><path class="a" d="M-6873.075,346.767l-.286,4.4a.159.159,0,0,1-.247.122l-3.672-2.449a.16.16,0,0,1,.018-.276l3.958-1.955A.159.159,0,0,1-6873.075,346.767Z"/><path class="a" d="M-6867.856,354.552l-.058-1.673a.155.155,0,0,1,.148-.16,6.131,6.131,0,0,0,4.148-1.953,6.138,6.138,0,0,0,1.656-4.428,6.3,6.3,0,0,0-.2-1.358.154.154,0,0,1,.106-.19l1.607-.464a.164.164,0,0,1,.2.113,8.138,8.138,0,0,1,.272,1.83,8.111,8.111,0,0,1-2.189,5.856,8.111,8.111,0,0,1-5.523,2.585A.165.165,0,0,1-6867.856,354.552Z"/><path class="a" d="M-6863.206,346.168l.132-4.412a.16.16,0,0,1,.243-.131l3.755,2.32a.159.159,0,0,1-.008.276l-3.887,2.092A.159.159,0,0,1-6863.206,346.168Z"/><path class="a" d="M-6873.379,351.448"/><path class="a" d="M-6868.135,353.726"/><circle class="a" cx="3.311" cy="3.311" r="3.311" transform="translate(-6871.446 343.243)"/></g></svg>